<?xml version="1.0" encoding="UTF-8" standalone="no"?>
<!-- Generator: Adobe Illustrator 19.1.0, SVG Export Plug-In . SVG Version: 6.00 Build 0)  -->

<svg
   xmlns:dc="http://purl.org/dc/elements/1.1/"
   xmlns:cc="http://creativecommons.org/ns#"
   xmlns:rdf="http://www.w3.org/1999/02/22-rdf-syntax-ns#"
   xmlns:svg="http://www.w3.org/2000/svg"
   xmlns="http://www.w3.org/2000/svg"
   xmlns:sodipodi="http://sodipodi.sourceforge.net/DTD/sodipodi-0.dtd"
   xmlns:inkscape="http://www.inkscape.org/namespaces/inkscape"
   version="1.1"
   id="Capa_1"
   x="0px"
   y="0px"
   viewBox="0 0 512 512"
   style="enable-background:new 0 0 512 512;"
   xml:space="preserve"
   sodipodi:docname="employee.svg"
   inkscape:export-filename="/home/rafaelsaback/workspace/net-salary-calculator/packages/mobile/assets/employee.png"
   inkscape:export-xdpi="18.75"
   inkscape:export-ydpi="18.75"
   inkscape:version="0.92.3 (2405546, 2018-03-11)"><metadata
   id="metadata73"><rdf:RDF><cc:Work
       rdf:about=""><dc:format>image/svg+xml</dc:format><dc:type
         rdf:resource="http://purl.org/dc/dcmitype/StillImage" /></cc:Work></rdf:RDF></metadata><defs
   id="defs71" /><sodipodi:namedview
   pagecolor="#ffffff"
   bordercolor="#666666"
   borderopacity="1"
   objecttolerance="10"
   gridtolerance="10"
   guidetolerance="10"
   inkscape:pageopacity="0"
   inkscape:pageshadow="2"
   inkscape:window-width="1853"
   inkscape:window-height="1025"
   id="namedview69"
   showgrid="false"
   inkscape:zoom="0.4609375"
   inkscape:cx="256"
   inkscape:cy="256"
   inkscape:window-x="67"
   inkscape:window-y="27"
   inkscape:window-maximized="1"
   inkscape:current-layer="Capa_1" />
<g
   id="g36">
	<g
   id="g4">
		<path
   style="fill:#FF4F19;"
   d="M400.764,402.012l-18.14-108.591h-0.053c-2.519-14.684-12.614-29.89-29.801-34.702    c-0.212-0.06-0.424-0.106-0.642-0.137l-42.323-6.351c-0.259-0.039-0.812-0.06-1.077-0.06c-2.677,0-4.935,1.996-5.261,4.655    c-2.253,18.298-17.382,32.665-36.85,36.595h-21.241c-19.47-3.93-34.599-18.295-36.847-36.595    c-0.332-2.736-2.796-4.794-5.396-4.652c-0.311-0.018-0.616,0.008-0.942,0.057l-42.323,6.351c-0.217,0.031-0.43,0.078-0.642,0.137    c-17.188,4.812-27.283,20.019-29.801,34.702h-0.053l-18.14,108.591C107.479,421.731,122.597,440,142.67,440H144h224h1.33    C389.403,440,404.52,421.731,400.764,402.012z"
   id="path2" />
	</g>
	<g
   id="g8">
		<path
   style="fill:#FDC88E;"
   d="M256,246.87c-18.52,0-35.322-7.947-47.719-20.791c-0.009,7.698-0.289,18.808-2.33,26.915    c1.339,0.818,2.378,2.162,2.58,3.833c2.646,21.529,23.051,37.761,47.469,37.761c24.413,0,44.818-16.235,47.469-37.761    c0.206-1.674,1.222-3.015,2.581-3.831c-2.041-8.107-2.322-19.219-2.331-26.917C291.322,238.923,274.519,246.87,256,246.87z"
   id="path6" />
	</g>
	<g
   id="g12">
		<path
   style="fill:#FFB980;"
   d="M302.684,227.056C290.39,239.301,274.025,246.87,256,246.87c-18.52,0-35.322-7.947-47.719-20.791    c-0.009,7.698-0.289,18.808-2.33,26.915c1.339,0.818,2.378,2.162,2.58,3.833c1.17,9.516,5.817,17.989,12.74,24.491    C253.194,276.822,289.426,245.3,302.684,227.056z"
   id="path10" />
	</g>
	<g
   id="g16">
		<path
   style="fill:#FFE1B2;"
   d="M303.717,114.321h-90.133c-14.617,0-26.51,11.893-26.51,26.51v31.812    c0,40.929,30.921,74.227,68.925,74.227s68.925-33.298,68.925-74.227v-37.114C324.925,123.835,315.414,114.321,303.717,114.321z"
   id="path14" />
	</g>
	<g
   id="g20">
		<path
   style="fill:#7E5449;"
   d="M293.113,56h-68.925c-9.972,0-18.355,6.917-20.612,16.204    c-18.251,2.32-32.407,17.946-32.407,36.816v26.51c0,13.664,5.801,26.411,15.906,35.47v-30.168c0-14.617,11.893-26.51,26.51-26.51    h90.133c11.696,0,21.208,9.514,21.208,21.208v35.464c10.107-9.057,15.906-21.804,15.906-35.464v-31.812    C340.831,77.407,319.426,56,293.113,56z"
   id="path18" />
	</g>
	<g
   id="g24">
		<path
   style="fill:#D8DCE1;"
   d="M352,440H160c-4.418,0-8-3.582-8-8V328c0-4.418,3.582-8,8-8h192c4.418,0,8,3.582,8,8v104    C360,436.418,356.418,440,352,440z"
   id="path22" />
	</g>
	<g
   id="g30">
		<g
   id="g28">
			<path
   style="fill:#9F6459;"
   d="M504,456H8c-4.422,0-8-3.582-8-8s3.578-8,8-8h496c4.422,0,8,3.582,8,8S508.422,456,504,456z"
   id="path26" />
		</g>
	</g>
	<g
   id="g34">
		<circle
   style="fill:#FFFFFF;"
   cx="256"
   cy="384"
   r="16"
   id="circle32" />
	</g>
</g>
<g
   id="g38">
</g>
<g
   id="g40">
</g>
<g
   id="g42">
</g>
<g
   id="g44">
</g>
<g
   id="g46">
</g>
<g
   id="g48">
</g>
<g
   id="g50">
</g>
<g
   id="g52">
</g>
<g
   id="g54">
</g>
<g
   id="g56">
</g>
<g
   id="g58">
</g>
<g
   id="g60">
</g>
<g
   id="g62">
</g>
<g
   id="g64">
</g>
<g
   id="g66">
</g>
</svg>