<?xml version="1.0" encoding="UTF-8" standalone="no"?>
<!-- Created with Inkscape (http://www.inkscape.org/) -->

<svg
   xmlns:dc="http://purl.org/dc/elements/1.1/"
   xmlns:cc="http://creativecommons.org/ns#"
   xmlns:rdf="http://www.w3.org/1999/02/22-rdf-syntax-ns#"
   xmlns:svg="http://www.w3.org/2000/svg"
   xmlns="http://www.w3.org/2000/svg"
   xmlns:sodipodi="http://sodipodi.sourceforge.net/DTD/sodipodi-0.dtd"
   xmlns:inkscape="http://www.inkscape.org/namespaces/inkscape"
   width="1024"
   height="1024"
   viewBox="0 0 270.93334 270.93334"
   version="1.1"
   id="svg8"
   inkscape:version="0.92.3 (2405546, 2018-03-11)"
   sodipodi:docname="icon-google-play.svg"
   inkscape:export-filename="/home/rafaelsaback/workspace/net-salary-calculator/packages/mobile/assets/icon-google.play.png"
   inkscape:export-xdpi="48.000004"
   inkscape:export-ydpi="48.000004">
  <defs
     id="defs2" />
  <sodipodi:namedview
     id="base"
     pagecolor="#000000"
     bordercolor="#666666"
     borderopacity="1.0"
     inkscape:pageopacity="0"
     inkscape:pageshadow="2"
     inkscape:zoom="0.82421875"
     inkscape:cx="512"
     inkscape:cy="512"
     inkscape:document-units="mm"
     inkscape:current-layer="layer1"
     showgrid="false"
     inkscape:pagecheckerboard="true"
     inkscape:window-width="1853"
     inkscape:window-height="1025"
     inkscape:window-x="67"
     inkscape:window-y="27"
     inkscape:window-maximized="1"
     units="px"
     showguides="false" />
  <metadata
     id="metadata5">
    <rdf:RDF>
      <cc:Work
         rdf:about="">
        <dc:format>image/svg+xml</dc:format>
        <dc:type
           rdf:resource="http://purl.org/dc/dcmitype/StillImage" />
        <dc:title />
      </cc:Work>
    </rdf:RDF>
  </metadata>
  <g
     inkscape:label="Background"
     inkscape:groupmode="layer"
     id="layer1"
     transform="translate(0,-26.066659)"
     style="opacity:1">
    <text
       xml:space="preserve"
       style="font-style:normal;font-variant:normal;font-weight:normal;font-stretch:normal;font-size:48.94897461px;line-height:1.25;font-family:Milkshake;-inkscape-font-specification:'Milkshake, Normal';font-variant-ligatures:normal;font-variant-caps:normal;font-variant-numeric:normal;font-feature-settings:normal;text-align:center;letter-spacing:0px;word-spacing:0px;writing-mode:lr-tb;text-anchor:middle;fill:#000000;fill-opacity:1;stroke:none;stroke-width:0.26458332"
       x="91.848343"
       y="44.867298"
       id="text1423"><tspan
         sodipodi:role="line"
         id="tspan1421"
         x="91.848343"
         y="85.713234"
         style="stroke-width:0.26458332" /></text>
    <rect
       style="opacity:1;fill:#000145;fill-opacity:1;stroke:none;stroke-width:1.87336349;stroke-linecap:square;stroke-linejoin:round;stroke-miterlimit:4;stroke-dasharray:none;stroke-dashoffset:0;stroke-opacity:1"
       id="rect818"
       width="270.93332"
       height="270.93332"
       x="7.1207683e-06"
       y="26.066666"
       inkscape:export-xdpi="48.000004"
       inkscape:export-ydpi="48.000004"
       ry="43.269451" />
    <g
       id="g836"
       transform="matrix(1.6469004,0,0,1.6469004,-86.36164,-86.534604)">
      <path
         inkscape:connector-curvature="0"
         id="flowRoot840"
         d="m 110.12548,161.56429 c -5.6005,5.54672 -11.243051,11.13476 -13.231567,13.23686 -0.17518,0.27778 -0.437944,0.64827 -0.613117,0.83346 -0.175174,0.46294 -0.175221,0.55537 -0.175221,2.12941 0,2.68512 0.350529,3.05568 1.927105,3.7038 h 34.77195 c 0.78829,-0.37035 1.40154,-0.92608 1.75189,-1.75939 0.17517,-0.46296 0.17521,-0.648 0.17521,-5.3701 0,-4.62952 -4e-5,-4.81464 -0.17521,-5.27759 -0.26276,-0.64814 -0.78834,-1.29632 -1.40145,-1.57409 -0.35035,-0.18518 -0.52544,-0.27782 -2.10202,-0.27782 -2.01451,0 -2.18965,0.0927 -2.89035,0.83345 -0.70069,0.83331 -0.78833,1.11102 -0.78833,3.98132 v 2.50004 h -19.88231 c 0.52074,-0.55048 5.77808,-5.92517 13.03184,-12.95935 z m 37.53037,0 v 19.99604 h 15.39624 v -19.99604 z"
         style="font-style:normal;font-variant:normal;font-weight:bold;font-stretch:normal;font-size:185.0039978px;line-height:1.25;font-family:Milkshake;-inkscape-font-specification:'Milkshake Bold';font-variant-ligatures:normal;font-variant-position:normal;font-variant-caps:normal;font-variant-numeric:normal;font-variant-alternates:normal;text-indent:0;text-align:center;text-decoration:none;text-decoration-line:none;text-decoration-style:solid;text-decoration-color:#000000;letter-spacing:0px;word-spacing:0px;text-transform:none;writing-mode:lr-tb;direction:ltr;text-orientation:mixed;dominant-baseline:auto;baseline-shift:baseline;text-anchor:middle;white-space:normal;shape-padding:0;opacity:1;vector-effect:none;fill:#dc143c;fill-opacity:1;stroke:none;stroke-width:0.48676881;stroke-linecap:butt;stroke-linejoin:miter;stroke-miterlimit:4;stroke-dasharray:none;stroke-dashoffset:0;stroke-opacity:1" />
      <path
         inkscape:connector-curvature="0"
         id="flowRoot856"
         d="m 147.5832,111.33991 v 30.9236 l -10.10872,7.36933 4.75462,6.96226 5.3541,-3.8879 v 8.98354 h 15.4201 v -17.30241 l 10.27998,-7.41436 -4.75431,-6.96225 -5.52567,3.97856 v -22.65037 z m -31.62943,30.44056 c -9.03497,0 -16.579078,0.0925 -16.666803,0.0925 -0.877233,0.27778 -1.491169,1.01851 -1.929777,1.94441 l -0.0879,4.44445 c 0,4.25916 4.8e-5,4.44432 0.175481,4.90727 0.263175,0.64813 0.789555,1.29602 1.40363,1.57378 0.350884,0.18518 0.526257,0.18532 2.105279,0.18532 2.01763,0 2.19303,8e-5 2.89483,-0.74064 0.70178,-0.74073 0.78954,-1.11124 0.78955,-3.426 v -1.9444 h 18.2459 c -1.91247,2.01858 -7.38054,7.42619 -12.88876,12.87358 h 10.41401 c 0.0668,-0.0646 0.12687,-0.12375 0.19398,-0.18868 6.93013,-6.94427 12.71989,-12.77754 12.89534,-12.96272 l 0.61407,-0.92564 c 0.17544,-0.37037 0.26308,-0.4631 0.26308,-2.12973 0,-2.77771 -0.61393,-2.68501 -1.92978,-3.7035 z"
         style="font-style:normal;font-variant:normal;font-weight:bold;font-stretch:normal;font-size:185.0039978px;line-height:1.25;font-family:Milkshake;-inkscape-font-specification:'Milkshake Bold';font-variant-ligatures:normal;font-variant-position:normal;font-variant-caps:normal;font-variant-numeric:normal;font-variant-alternates:normal;text-indent:0;text-align:center;text-decoration:none;text-decoration-line:none;text-decoration-style:solid;text-decoration-color:#000000;letter-spacing:0px;word-spacing:0px;text-transform:none;writing-mode:lr-tb;direction:ltr;text-orientation:mixed;dominant-baseline:auto;baseline-shift:baseline;text-anchor:middle;white-space:normal;shape-padding:0;opacity:1;vector-effect:none;fill:#ffffff;fill-opacity:1;stroke:none;stroke-width:0.48714572;stroke-linecap:butt;stroke-linejoin:miter;stroke-miterlimit:4;stroke-dasharray:none;stroke-dashoffset:0;stroke-opacity:1" />
    </g>
  </g>
  <g
     inkscape:groupmode="layer"
     id="layer2"
     inkscape:label="Foreground" />
</svg>
